<svg xmlns="http://www.w3.org/2000/svg" xmlns:xlink="http://www.w3.org/1999/xlink" viewBox="0 0 646.08 302.03"><defs><style>.cls-1{fill:none;}.cls-2{isolation:isolate;}.cls-3{fill:#131721;}.cls-4{fill:#00678d;}.cls-5{fill:#047e9c;}.cls-16,.cls-18,.cls-6{fill:#414141;}.cls-18,.cls-20,.cls-21,.cls-23,.cls-6{mix-blend-mode:multiply;}.cls-6{opacity:0.15;}.cls-7{fill:#323d48;}.cls-8{fill:#a41e23;}.cls-9{fill:#322a36;}.cls-10{clip-path:url(#clip-path);}.cls-11,.cls-17{fill:#fff;mix-blend-mode:overlay;}.cls-11{opacity:0.25;}.cls-12{clip-path:url(#clip-path-2);}.cls-13{fill:#eae6c6;}.cls-14{fill:#d8d6af;}.cls-15{fill:#f69220;}.cls-17{opacity:0.3;}.cls-18{opacity:0.21;}.cls-19{fill:#182127;}.cls-20,.cls-22{fill:#8f9495;}.cls-20,.cls-23{opacity:0.4;}.cls-21{opacity:0.2;}</style><clipPath id="clip-path" transform="translate(0 31.85)"><path class="cls-1" d="M256.85,56.53l-9.52-44.81s76.32-1.06,100.55,0c0,0,34.92,10.58,93.13,54Z"/></clipPath><clipPath id="clip-path-2" transform="translate(0 31.85)"><path class="cls-1" d="M239.57,12.09l3.53,44.33L75.75,52.07l32.93-30.58S193.83,12.82,239.57,12.09Z"/></clipPath></defs><g class="cls-2"><g id="Layer_2" data-name="Layer 2"><g id="Layer_1-2" data-name="Layer 1"><polygon class="cls-3" points="45.45 239.94 596.55 238.66 606.86 225.46 588.84 177.09 523.7 153.33 73.69 153.33 21.69 198.65 45.45 239.94"/><path class="cls-4" d="M637.73,134.27l-6.36-8.51-11.59-20s-6-8.18-13.51-11.47c0,0-56.22-15.68-130.84-20.11l-107.1-66S350.16,0,316.54,0c0,0-149-1.31-231.12,13.92a11.67,11.67,0,0,0-5.83,2.92L27.14,65.45S11.93,72.83,9.31,84L8.18,105.88l-5.91,4.66v28.17L4,149.38l-4,3.41,2.27,15.67S8.56,193,20.18,202.8L24,204.61l16.51,3.48h4.9a67.46,67.46,0,0,1-.57-8.69,65.7,65.7,0,1,1,131.39,0,67.46,67.46,0,0,1-.57,8.69H466.15A65.69,65.69,0,1,1,597,199.4a67.32,67.32,0,0,1-.41,7.41l27.55-5.07L639,165a30,30,0,0,0,2.2-12.34C641,147,640.26,139.14,637.73,134.27Z" transform="translate(0 31.85)"/><path class="cls-5" d="M618.93,104.69c-1.91-2.34-6.84-7.84-12.66-10.39,0,0-56.22-15.68-130.84-20.11l-107.1-66S350.16,0,316.54,0c0,0-149-1.31-231.12,13.92a11.67,11.67,0,0,0-5.83,2.92L27.14,65.45S11.93,72.83,9.31,84v.23H60.72L537.47,96.9Z" transform="translate(0 31.85)"/><path class="cls-6" d="M326.29,244.82C149.67,244.82,6.5,250.5,6.5,257.5s143.17,12.68,319.79,12.68,319.79-5.67,319.79-12.68S502.9,244.82,326.29,244.82Z" transform="translate(0 31.85)"/><path class="cls-5" d="M531.27,123.4a75.8,75.8,0,0,1,75.59,70.21c.13-1.85.2-3.71.2-5.59a75.79,75.79,0,1,0-151.58,0c0,1.88.07,3.74.2,5.59A75.81,75.81,0,0,1,531.27,123.4Z" transform="translate(0 31.85)"/><path class="cls-5" d="M110.58,123.4a75.79,75.79,0,0,1,75.58,70.21c.14-1.85.21-3.71.21-5.59a75.8,75.8,0,1,0-151.59,0c0,1.88.07,3.74.21,5.59A75.8,75.8,0,0,1,110.58,123.4Z" transform="translate(0 31.85)"/><path class="cls-7" d="M175.51,189.43a65.54,65.54,0,0,1,.76,10,67.46,67.46,0,0,1-.57,8.69H466.15a66.59,66.59,0,0,1,.18-18.66Z" transform="translate(0 31.85)"/><path class="cls-7" d="M10.31,189.43c2.67,5.12,6,10.08,9.87,13.37L24,204.61l16.51,3.48h4.9a67.46,67.46,0,0,1-.57-8.69,65.54,65.54,0,0,1,.76-10Z" transform="translate(0 31.85)"/><path class="cls-7" d="M596.21,189.43a65.54,65.54,0,0,1,.75,10,67.32,67.32,0,0,1-.41,7.41l27.55-5.07,5-12.31Z" transform="translate(0 31.85)"/><path class="cls-7" d="M316.54,0S167.78-1.27,85.64,13.91A12.47,12.47,0,0,0,79.42,17L35.69,57.32,475.43,74.19l-107.1-66S350.16,0,316.54,0Z" transform="translate(0 31.85)"/><path class="cls-8" d="M9.3,84.19,8.18,105.88l-1.33,1.05c10.81-.13,23.71-.83,23.71-.83,17.83-1.42,29.22-17.64,29.22-17.64,2.27-2.47.94-4.27.94-4.27Z" transform="translate(0 31.85)"/><path class="cls-7" d="M514.07,97.16l-76.76-4.35a1.53,1.53,0,0,0-1,2.77A36.33,36.33,0,0,0,446.6,101l44.29,3a53.12,53.12,0,0,0,23.59-4.62A1.17,1.17,0,0,0,514.07,97.16Z" transform="translate(0 31.85)"/><path class="cls-9" d="M256.85,56.53l-9.52-44.81s76.32-1.06,100.55,0c0,0,34.92,10.58,93.13,54Z" transform="translate(0 31.85)"/><g class="cls-10"><polygon class="cls-11" points="363.06 0 297.48 140.65 356.27 140.65 421.86 0 363.06 0"/><polygon class="cls-11" points="271.88 0 206.29 140.65 227.24 140.65 292.82 0 271.88 0"/><polygon class="cls-11" points="450.83 0 385.24 140.65 419.85 140.65 485.44 0 450.83 0"/><polygon class="cls-11" points="315.14 0 249.55 140.65 263.07 140.65 328.66 0 315.14 0"/><polygon class="cls-11" points="333.65 0 268.06 140.65 276.77 140.65 342.35 0 333.65 0"/></g><path class="cls-9" d="M239.57,12.07l3.53,44.34L75.75,52.06l32.93-30.58S193.83,12.8,239.57,12.07Z" transform="translate(0 31.85)"/><g class="cls-12"><polygon class="cls-11" points="187.61 17.95 122.02 158.6 180.81 158.6 246.4 17.95 187.61 17.95"/><polygon class="cls-11" points="96.42 17.95 30.83 158.6 51.78 158.6 117.37 17.95 96.42 17.95"/><polygon class="cls-11" points="275.37 17.95 209.79 158.6 244.4 158.6 309.99 17.95 275.37 17.95"/><polygon class="cls-11" points="139.69 17.95 74.1 158.6 87.62 158.6 153.21 17.95 139.69 17.95"/><polygon class="cls-11" points="158.19 17.95 92.61 158.6 101.31 158.6 166.9 17.95 158.19 17.95"/></g><path class="cls-3" d="M442.24,64.06c-30.19-22.5-54-36-68.7-43.45-16-8.06-24.71-10.74-25.07-10.85l-.25-.07H348c-7.18-.32-19.6-.47-36.92-.47v0c-29.47,0-63.41.46-63.75.47l-2.49,0,.52,2.44L254.85,57l.33,1.54,1.57.08,184.16,9.17,6.71.33ZM256.85,56.53l-9.52-44.81s33.92-.47,63.71-.47c14.9,0,28.76.12,36.84.47,0,0,34.92,10.58,93.13,54Z" transform="translate(0 31.85)"/><path class="cls-3" d="M241.61,11.91,241.45,10l-1.91,0c-45.31.72-130.22,9.33-131.07,9.42l-.68.07-.5.46L74.36,50.56,70.69,54l5,.13L243,58.45l2.27.06-.18-2.26ZM75.75,52.06l32.93-30.58s85.15-8.68,130.89-9.41l3.53,44.34Z" transform="translate(0 31.85)"/><path class="cls-7" d="M118.15,9.06a197.54,197.54,0,0,0-54.34,3l-2.05,3S66.22,17,87.42,29.57Z" transform="translate(0 31.85)"/><path class="cls-13" d="M631.37,125.76l-11.59-20s-.3-.41-.85-1.08L537.47,96.9s4,5.61,15.33,11.22l18.33,4.11s8.9,3.28,12.45,6.7l48.51,7.79Z" transform="translate(0 31.85)"/><path class="cls-14" d="M618.83,113.35c1.31,3.84.94,7.44-.82,8s-4.25-2-5.56-5.87-.94-7.45.82-8S617.52,109.5,618.83,113.35Z" transform="translate(0 31.85)"/><path class="cls-14" d="M609.32,111.94c1.21,3.57.87,6.91-.77,7.46s-3.93-1.88-5.15-5.44-.87-6.91.76-7.46S608.1,108.38,609.32,111.94Z" transform="translate(0 31.85)"/><path class="cls-14" d="M600.22,110.69c1.12,3.29.81,6.38-.7,6.89s-3.64-1.74-4.76-5-.81-6.38.7-6.9S599.1,107.4,600.22,110.69Z" transform="translate(0 31.85)"/><path class="cls-14" d="M591.42,109.71c1.06,3.11.76,6-.67,6.51s-3.43-1.65-4.49-4.76-.76-6,.66-6.51S590.36,106.6,591.42,109.71Z" transform="translate(0 31.85)"/><path class="cls-15" d="M574.93,100.48,537.47,96.9s4,5.61,15.33,11.22l18.33,4.11s8.9,3.28,12.45,6.7l.81.13Z" transform="translate(0 31.85)"/><path class="cls-16" d="M631.37,125.76l-11.59-20s-.3-.41-.85-1.08L537.47,96.9s4,5.61,15.33,11.22l18.33,4.11s8.9,3.28,12.45,6.7l48.51,7.79Zm-47.16-8.11c-3.89-3.46-12.24-6.57-12.6-6.7l-.09,0-.09,0-18.17-4.07a52,52,0,0,1-12.34-8.23L618.23,106l.42.53,10.64,18.37Z" transform="translate(0 31.85)"/><path class="cls-17" d="M619.78,105.77s-.3-.41-.85-1.08L537.47,96.9a24.44,24.44,0,0,0,3.89,3.92l84.57,15.56Z" transform="translate(0 31.85)"/><path class="cls-18" d="M271.85,92.25l.28-9a2.42,2.42,0,0,1,2.4-2.43l31,.91a2.41,2.41,0,0,1,2.25,2.56l-.28,9a2.42,2.42,0,0,1-2.4,2.43l-31-.91A2.41,2.41,0,0,1,271.85,92.25Z" transform="translate(0 31.85)"/><path class="cls-19" d="M274.28,89.2l31,.9a2.42,2.42,0,0,0,2.4-2.42l.11-3.34a2.41,2.41,0,0,0-2.25-2.56l-31-.91a2.42,2.42,0,0,0-2.4,2.43l-.1,3.33A2.42,2.42,0,0,0,274.28,89.2Z" transform="translate(0 31.85)"/><path class="cls-13" d="M9,89.72l-.83,16.16-1.33,1.05c2.54,0,5.19-.09,7.77-.17a30.51,30.51,0,0,0,9.65-17Z" transform="translate(0 31.85)"/><path class="cls-16" d="M60.72,84.19H9.3L8.18,105.88l-1.33,1.05c10.81-.13,23.71-.83,23.71-.83,17.83-1.42,29.22-17.64,29.22-17.64C62.05,86,60.72,84.19,60.72,84.19Zm-1.95,3.35-.06.06-.05.08c-.11.15-11.24,15.7-28.19,17.06-.49,0-11.08.59-20.91.78l1-20H59.75A3,3,0,0,1,58.77,87.54Z" transform="translate(0 31.85)"/><polygon class="cls-5" points="175.51 185.63 449.7 195.45 449.7 202.49 182.51 202.49 175.51 185.63"/><path class="cls-20" d="M449,73l-2.71.24,3.43,39v69.94H292.06c-1.61-1.46-8.62-8.36-16.28-23.84-8-16.25-18.44-45.54-22.4-92.8l-2.71.23c4,47.86,14.61,77.55,22.79,94,9,18,16.9,24.55,17.23,24.81l.38.31H452.43V112.22Z" transform="translate(0 31.85)"/><path class="cls-7" d="M606.62,144.54c1.72,7.42,4.78,21.81,5.62,33.57a1.81,1.81,0,0,0,1.81,1.67h8.83a4,4,0,0,0,2.87-1.19c3-3.06,9.85-12.48,7.61-33.56,0,0-.79-3.58-3.35-4.32l-19.45-.9A3.86,3.86,0,0,0,606.62,144.54Z" transform="translate(0 31.85)"/><path class="cls-7" d="M441,65.7c-13.16-9.81-25.13-18-35.78-24.66l1.94,23Z" transform="translate(0 31.85)"/><g class="cls-21"><path class="cls-22" d="M597,199.4a67.32,67.32,0,0,1-.41,7.41l27.55-5.07L639,165a30,30,0,0,0,2.2-12.34c-.19-5.32-.88-12.56-3-17.46H545.44A65.72,65.72,0,0,1,597,199.4Z" transform="translate(0 31.85)"/><path class="cls-22" d="M517.1,135.24H124.75a65.72,65.72,0,0,1,51.52,64.16,67.46,67.46,0,0,1-.57,8.69H466.15a65.77,65.77,0,0,1,51-72.85Z" transform="translate(0 31.85)"/><path class="cls-22" d="M2.27,168.46S8.56,193,20.18,202.8L24,204.61l16.51,3.48h4.9a67.46,67.46,0,0,1-.57-8.69,65.73,65.73,0,0,1,51.53-64.16H2.27v3.47L4,149.38l-4,3.41Z" transform="translate(0 31.85)"/></g><g class="cls-23"><path class="cls-22" d="M347.88,11.72c-8.08-.35-21.94-.47-36.84-.47-29.79,0-63.71.47-63.71.47l9.52,44.81L441,65.7C382.8,22.3,347.88,11.72,347.88,11.72Zm-98.56,1.59c7.68-.1,36.36-.44,61.73-.44h0c17.1,0,29.39.15,36.54.46,1.35.43,9.94,3.31,24.42,10.61,13.82,7,35.85,19.47,63.73,39.87L258.18,55Z" transform="translate(0 31.85)"/><path class="cls-22" d="M108.68,21.48,75.75,52.06,243.1,56.41l-3.53-44.34C193.83,12.8,108.68,21.48,108.68,21.48ZM79.76,50.54,109.38,23c7.26-.73,85.12-8.47,128.69-9.32l3.27,41Z" transform="translate(0 31.85)"/></g><path class="cls-4" d="M396.78,54.46V38.65s.22-2.55,4.86-2.55c0,0,10.19,1.18,13.58,5.89a54.26,54.26,0,0,1,6,17.77s-1.24,4-4.07,3.83c0,0-10.3-.59-15-2.94C402.1,60.65,396.78,57.6,396.78,54.46Z" transform="translate(0 31.85)"/><path class="cls-5" d="M401.64,36.1a9,9,0,0,0-1.21.07c2.86,3.47,11.08,14.31,13.42,27.13,1.95.21,3.3.29,3.3.29,2.83.2,4.07-3.83,4.07-3.83a54.26,54.26,0,0,0-6-17.77C411.83,37.28,401.64,36.1,401.64,36.1Z" transform="translate(0 31.85)"/></g></g></g></svg>