<svg xmlns="http://www.w3.org/2000/svg" viewBox="0 0 116.94 116.94"><defs><style>.cls-1{fill:#29222c;}.cls-2{fill:#3f3643;}.cls-3{fill:#d0d1d2;}.cls-4{fill:#a5a8ab;}.cls-5{fill:#caccce;}</style></defs><g id="Layer_2" data-name="Layer 2"><g id="Layer_1-2" data-name="Layer 1"><path class="cls-1" d="M116.94,58.47A58.47,58.47,0,1,1,58.47,0,58.47,58.47,0,0,1,116.94,58.47Z"/><path class="cls-2" d="M58.47,0a58.47,58.47,0,1,0,58.47,58.47A58.47,58.47,0,0,0,58.47,0Zm38.3,96.77a54,54,0,1,1,11.61-17.22A54.17,54.17,0,0,1,96.77,96.77Z"/><path class="cls-2" d="M58.47,12.85a45.62,45.62,0,1,0,45.61,45.62A45.67,45.67,0,0,0,58.47,12.85ZM98.18,58.47A39.57,39.57,0,1,1,95.06,43,39.47,39.47,0,0,1,98.18,58.47Z"/><path class="cls-3" d="M98.17,58.47a39.7,39.7,0,1,1-39.6-39.71A39.83,39.83,0,0,1,98.17,58.47Z"/><path class="cls-1" d="M91.07,58.47A32.6,32.6,0,1,1,58.55,25.86,32.71,32.71,0,0,1,91.07,58.47Z"/><path class="cls-4" d="M91.06,61.89l0-6.85H79.41A21.3,21.3,0,0,0,78.33,51l10.12-5.83L85,39.2,74.92,45a21,21,0,0,0-3-3L77.8,31.94l-5.92-3.42L66,38.62a21.31,21.31,0,0,0-4.08-1.09l0-11.67H55.13l0,11.67A21.41,21.41,0,0,0,51,38.62L45.2,28.52l-5.93,3.42,5.81,10.11a21.13,21.13,0,0,0-3,3L32,39.2l-3.43,5.93L38.64,51A20.63,20.63,0,0,0,37.54,55H25.87v6.85H37.52A21.49,21.49,0,0,0,38.6,66L28.49,71.8l3.41,5.93L42,71.9a21.45,21.45,0,0,0,3,3L39.14,85l5.92,3.42,5.85-10.1A21.51,21.51,0,0,0,55,79.4l0,11.67h6.85l0-11.67a21.31,21.31,0,0,0,4.08-1.09l5.81,10.1L77.67,85,71.86,74.88a21.59,21.59,0,0,0,3-3l10.09,5.83,3.44-5.93L78.29,66a20.81,20.81,0,0,0,1.1-4.08Z"/><path class="cls-1" d="M68.43,58.47a10,10,0,1,1-9.94-10A10,10,0,0,1,68.43,58.47Z"/><path class="cls-3" d="M58.47,74.28A15.82,15.82,0,1,1,74.28,58.47,15.83,15.83,0,0,1,58.47,74.28Zm0-29.92a14.11,14.11,0,1,0,14.1,14.11A14.13,14.13,0,0,0,58.47,44.36Z"/><path class="cls-5" d="M64.25,58.47a5.79,5.79,0,1,1-5.77-5.79A5.79,5.79,0,0,1,64.25,58.47Z"/><path class="cls-3" d="M58.47,37.73A20.74,20.74,0,1,0,79.2,58.47,20.77,20.77,0,0,0,58.47,37.73Zm18,20.74a18,18,0,1,1-1.42-7A18,18,0,0,1,76.52,58.47Z"/><path class="cls-3" d="M58.47,21.58A36.89,36.89,0,1,0,95.36,58.47,36.93,36.93,0,0,0,58.47,21.58ZM90.59,58.47A32.08,32.08,0,1,1,88.06,46,31.81,31.81,0,0,1,90.59,58.47Z"/></g></g></svg>